{"title":"Mickey Virus 2013 Hindi Movies HDSCamRip x264 with Sample ~ â˜»rDX","uid":9101240,"size":742688113,"categoryP":"video","categoryS":"movies","magnet":"?xt=urn:btih:29304572d0f29325178373e80847dd39ab00ce66&amp;dn=Mickey+Virus+2013+Hindi+Movies+HDSCamRip+x264+with+Sample+%7E+%E2%98%BBrDX&amp;tr=udp%3A%2F%2Ftracker.openbittorrent.com%3A80&amp;tr=udp%3A%2F%2Fopen.demonii.com%3A1337&amp;tr=udp%3A%2F%2Ftracker.coppersurfer.tk%3A6969&amp;tr=udp%3A%2F%2Fexodus.desync.com%3A6969","seeders":2,"leechers":1,"uploader":"basicssom","files":2,"time":1382772785,"description":" &lt;a href=&quot;http://s5.postimg.org/hgeuxszk7/logo.png&quot; rel=&quot;nofollow&quot; target=&quot;_NEW&quot;&gt;http://s5.postimg.org/hgeuxszk7/logo.png&lt;/a&gt;\n\nMickey Virus 2013 Hindi Movies HDSCamRip x264 with Sample ~ â˜»rDXâ˜»\n\nPlease check SCREEN SHOTS first :\n &lt;a href=&quot;\nhttp://myimghost.cwahi.net/2013/10/MickeyVirus/1.html&quot; rel=&quot;nofollow&quot; target=&quot;_NEW&quot;&gt;\nhttp://myimghost.cwahi.net/2013/10/MickeyVirus/1.html&lt;/a&gt; &lt;a href=&quot;\nhttp://myimghost.cwahi.net/2013/10/MickeyVirus/2.html&quot; rel=&quot;nofollow&quot; target=&quot;_NEW&quot;&gt;\nhttp://myimghost.cwahi.net/2013/10/MickeyVirus/2.html&lt;/a&gt; &lt;a href=&quot;\nhttp://myimghost.cwahi.net/2013/10/MickeyVirus/3.html&quot; rel=&quot;nofollow&quot; target=&quot;_NEW&quot;&gt;\nhttp://myimghost.cwahi.net/2013/10/MickeyVirus/3.html&lt;/a&gt; &lt;a href=&quot;\nhttp://myimghost.cwahi.net/2013/10/MickeyVirus/4.html&quot; rel=&quot;nofollow&quot; target=&quot;_NEW&quot;&gt;\nhttp://myimghost.cwahi.net/2013/10/MickeyVirus/4.html&lt;/a&gt; &lt;a href=&quot;\nhttp://myimghost.cwahi.net/2013/10/MickeyVirus/5.html&quot; rel=&quot;nofollow&quot; target=&quot;_NEW&quot;&gt;\nhttp://myimghost.cwahi.net/2013/10/MickeyVirus/5.html&lt;/a&gt; &lt;a href=&quot;\nhttp://myimghost.cwahi.net/2013/10/MickeyVirus/6.html&quot; rel=&quot;nofollow&quot; target=&quot;_NEW&quot;&gt;\nhttp://myimghost.cwahi.net/2013/10/MickeyVirus/6.html&lt;/a&gt;\n\nAll rDX torrents are Seeding From the 1Gbps Seedbox 24X7\n &lt;a href=&quot;\nhttp://s5.postimg.org/hrhr17fgn/image.jpg&quot; rel=&quot;nofollow&quot; target=&quot;_NEW&quot;&gt;\nhttp://s5.postimg.org/hrhr17fgn/image.jpg&lt;/a&gt;\n &lt;a href=&quot;\nhttp://s5.postimg.org/fcpvgrz7r/image.jpg&quot; rel=&quot;nofollow&quot; target=&quot;_NEW&quot;&gt;\nhttp://s5.postimg.org/fcpvgrz7r/image.jpg&lt;/a&gt;\n &lt;a href=&quot;\nhttp://s5.postimg.org/s2u3tv75z/image.jpg&quot; rel=&quot;nofollow&quot; target=&quot;_NEW&quot;&gt;\nhttp://s5.postimg.org/s2u3tv75z/image.jpg&lt;/a&gt;\n\nFormat                                   : MPEG-4\nFormat profile                           : Base Media\nCodec ID                                 : isom\nFile size                                : 695 MiB\nDuration                                 : 2h 3mn\nOverall bit rate mode                    : Variable\nOverall bit rate                         : 784 Kbps\nWriting application                      : Lavf52.34.0\n\nVideo\nID                                       : 1\nFormat                                   : AVC\nFormat/Info                              : Advanced Video Codec\nFormat profile                           : &lt;a class=&quot;__cf_email__&quot; href=&quot;/cdn-cgi/l/email-protection&quot; data-cfemail=&quot;9fd7f6f8f7dfd3adb1ae&quot;&gt;[email&amp;#160;protected]&lt;/a&gt;&lt;script cf-hash='f9e31' type=&quot;text/javascript&quot;&gt;\n/* &lt;![CDATA[ */!function(){try{var t=&quot;currentScript&quot;in document?document.currentScript:function(){for(var t=document.getElementsByTagName(&quot;script&quot;),e=t.length;e--;)if(t[e].getAttribute(&quot;cf-hash&quot;))return t[e]}();if(t&amp;&amp;t.previousSibling){var e,r,n,i,c=t.previousSibling,a=c.getAttribute(&quot;data-cfemail&quot;);if(a){for(e=&quot;&quot;,r=parseInt(a.substr(0,2),16),n=2;a.length-n;n+=2)i=parseInt(a.substr(n,2),16)^r,e+=String.fromCharCode(i);e=document.createTextNode(e),c.parentNode.replaceChild(e,c)}}}catch(u){}}();/* ]]&gt; */&lt;/script&gt;\nFormat settings, CABAC                   : Yes\nFormat settings, ReFrames                : 4 frames\nCodec ID                                 : avc1\nCodec ID/Info                            : Advanced Video Coding\nDuration                                 : 2h 3mn\nBit rate                                 : 717 Kbps\nWidth                                    : 608 pixels\nHeight                                   : 256 pixels\nDisplay aspect ratio                     : 2.40:1\nFrame rate mode                          : Constant\nFrame rate                               : 25.000 fps\nColor space                              : YUV\nChroma subsampling                       : 4:2:0\nBit depth                                : 8 bits\nScan type                                : Progressive\nBits/(Pixel*Frame)                       : 0.184\nStream size                              : 635 MiB (91%)\n\nAudio\nID                                       : 2\nFormat                                   : AAC\nFormat/Info                              : Advanced Audio Codec\nFormat profile                           : HE-AAC / LC\nCodec ID                                 : 40\nDuration                                 : 2h 3mn\nBit rate mode                            : Variable\nBit rate                                 : 64.0 Kbps\nChannel(s)                               : 2 channels\nChannel positions                        : Front: L R\nSampling rate                            : 48.0 KHz / 24.0 KHz\nCompression mode                         : Lossy\nStream size                              : 56.7 MiB (8%)","torrent":{"xt":"urn:btih:29304572d0f29325178373e80847dd39ab00ce66","amp;dn":"Mickey+Virus+2013+Hindi+Movies+HDSCamRip+x264+with+Sample+%7E+%E2%98%BBrDX","amp;tr":["udp%3A%2F%2Ftracker.openbittorrent.com%3A80","udp%3A%2F%2Fopen.demonii.com%3A1337","udp%3A%2F%2Ftracker.coppersurfer.tk%3A6969","udp%3A%2F%2Fexodus.desync.com%3A6969"],"infoHash":"29304572d0f29325178373e80847dd39ab00ce66","infoHashBuffer":{"type":"Buffer","data":[41,48,69,114,208,242,147,37,23,131,115,232,8,71,221,57,171,0,206,102]},"announce":[],"urlList":[]}}